<svg width="390" height="62" viewBox="0 0 390 62" fill="none" xmlns="http://www.w3.org/2000/svg">
<g clip-path="url(#clip0_610_239)">
<path d="M141.818 15.7273H145.045L151.5 26.5909H151.773L158.227 15.7273H161.455L153.045 29.4091V39H150.227V29.4091L141.818 15.7273Z" fill="#1400FF"/>
<path d="M243.091 15.7273H245.909V31.1364C245.909 32.7273 245.534 34.1477 244.784 35.3977C244.042 36.6402 242.992 37.6212 241.636 38.3409C240.28 39.053 238.689 39.4091 236.864 39.4091C235.038 39.4091 233.447 39.053 232.091 38.3409C230.735 37.6212 229.682 36.6402 228.932 35.3977C228.189 34.1477 227.818 32.7273 227.818 31.1364V15.7273H230.636V30.9091C230.636 32.0455 230.886 33.0568 231.386 33.9432C231.886 34.822 232.598 35.5152 233.523 36.0227C234.455 36.5227 235.568 36.7727 236.864 36.7727C238.159 36.7727 239.273 36.5227 240.205 36.0227C241.136 35.5152 241.848 34.822 242.341 33.9432C242.841 33.0568 243.091 32.0455 243.091 30.9091V15.7273Z" fill="#1400FF"/>
<path d="M35.0909 27.0909C34.8182 24.7879 33.7121 23 31.7727 21.7273C29.8333 20.4545 27.4545 19.8182 24.6364 19.8182C22.5758 19.8182 20.7727 20.1515 19.2273 20.8182C17.697 21.4848 16.5 22.4015 15.6364 23.5682C14.7879 24.7348 14.3636 26.0606 14.3636 27.5455C14.3636 28.7879 14.6591 29.8561 15.25 30.75C15.8561 31.6288 16.6288 32.3636 17.5682 32.9545C18.5076 33.5303 19.4924 34.0076 20.5227 34.3864C21.553 34.75 22.5 35.0455 23.3636 35.2727L28.0909 36.5455C29.303 36.8636 30.6515 37.303 32.1364 37.8636C33.6364 38.4242 35.0682 39.1894 36.4318 40.1591C37.8106 41.1136 38.947 42.3409 39.8409 43.8409C40.7349 45.3409 41.1818 47.1818 41.1818 49.3636C41.1818 51.8788 40.5227 54.1515 39.2045 56.1818C37.9015 58.2121 35.9924 59.8258 33.4773 61.0227C30.9773 62.2197 27.9394 62.8182 24.3636 62.8182C21.0303 62.8182 18.1439 62.2803 15.7045 61.2045C13.2803 60.1288 11.3712 58.6288 9.97727 56.7045C8.59848 54.7803 7.81818 52.5455 7.63636 50H13.4545C13.6061 51.7576 14.197 53.2121 15.2273 54.3636C16.2727 55.5 17.5909 56.3485 19.1818 56.9091C20.7879 57.4545 22.5152 57.7273 24.3636 57.7273C26.5152 57.7273 28.447 57.3788 30.1591 56.6818C31.8712 55.9697 33.2273 54.9848 34.2273 53.7273C35.2273 52.4545 35.7273 50.9697 35.7273 49.2727C35.7273 47.7273 35.2955 46.4697 34.4318 45.5C33.5682 44.5303 32.4318 43.7424 31.0227 43.1364C29.6136 42.5303 28.0909 42 26.4545 41.5455L20.7273 39.9091C17.0909 38.8636 14.2121 37.3712 12.0909 35.4318C9.9697 33.4924 8.90909 30.9545 8.90909 27.8182C8.90909 25.2121 9.61364 22.9394 11.0227 21C12.447 19.0455 14.3561 17.5303 16.75 16.4545C19.1591 15.3636 21.8485 14.8182 24.8182 14.8182C27.8182 14.8182 30.4848 15.3561 32.8182 16.4318C35.1515 17.4924 37 18.947 38.3636 20.7955C39.7424 22.6439 40.4697 24.7424 40.5455 27.0909H35.0909ZM90.1434 20.4545V15.4545H125.053V20.4545H110.416V62H104.78V20.4545H90.1434ZM350.159 62V15.4545H378.25V20.4545H355.795V36.1818H376.795V41.1818H355.795V57H378.613V62H350.159Z" fill="black"/>
<path d="M215.264 38.7273C215.264 43.6364 214.378 47.8788 212.605 51.4545C210.832 55.0303 208.4 57.7879 205.31 59.7273C202.219 61.6667 198.688 62.6364 194.719 62.6364C190.749 62.6364 187.219 61.6667 184.128 59.7273C181.037 57.7879 178.605 55.0303 176.832 51.4545C175.06 47.8788 174.173 43.6364 174.173 38.7273C174.173 33.8182 175.06 29.5758 176.832 26C178.605 22.4242 181.037 19.6667 184.128 17.7273C187.219 15.7879 190.749 14.8182 194.719 14.8182C198.688 14.8182 202.219 15.7879 205.31 17.7273C208.4 19.6667 210.832 22.4242 212.605 26C214.378 29.5758 215.264 33.8182 215.264 38.7273ZM209.81 38.7273C209.81 34.697 209.135 31.2955 207.787 28.5227C206.453 25.75 204.643 23.6515 202.355 22.2273C200.082 20.803 197.537 20.0909 194.719 20.0909C191.9 20.0909 189.347 20.803 187.06 22.2273C184.787 23.6515 182.976 25.75 181.628 28.5227C180.294 31.2955 179.628 34.697 179.628 38.7273C179.628 42.7576 180.294 46.1591 181.628 48.9318C182.976 51.7045 184.787 53.803 187.06 55.2273C189.347 56.6515 191.9 57.3636 194.719 57.3636C197.537 57.3636 200.082 56.6515 202.355 55.2273C204.643 53.803 206.453 51.7045 207.787 48.9318C209.135 46.1591 209.81 42.7576 209.81 38.7273ZM266.981 62V15.4545H282.709C286.345 15.4545 289.33 16.0758 291.663 17.3182C293.997 18.5455 295.724 20.2348 296.845 22.3864C297.966 24.5379 298.527 26.9848 298.527 29.7273C298.527 32.4697 297.966 34.9015 296.845 37.0227C295.724 39.1439 294.004 40.8106 291.686 42.0227C289.368 43.2197 286.406 43.8182 282.8 43.8182H270.072V38.7273H282.618C285.103 38.7273 287.103 38.3636 288.618 37.6364C290.148 36.9091 291.254 35.8788 291.936 34.5455C292.633 33.197 292.981 31.5909 292.981 29.7273C292.981 27.8636 292.633 26.2348 291.936 24.8409C291.239 23.447 290.125 22.3712 288.595 21.6136C287.065 20.8409 285.042 20.4545 282.527 20.4545H272.618V62H266.981ZM288.89 41.0909L300.345 62H293.8L282.527 41.0909H288.89Z" fill="#1400FF"/>
</g>
<defs>
<clipPath id="clip0_610_239">
<rect width="390" height="62" fill="white"/>
</clipPath>
</defs>
</svg>
